<mxfile host="app.diagrams.net" modified="2024-06-13T13:21:13.984Z" agent="Mozilla/5.0 (X11; Linux x86_64) AppleWebKit/537.36 (KHTML, like Gecko) Chrome/119.0.0.0 Safari/537.36" version="24.5.4" etag="JYYCorTxyg3YVBNCQ7wf" type="github">
  <diagram name="第 1 页" id="v29Pff1wOpS8M-gWJ-dF">
    <mxGraphModel>
      <root>
        <mxCell id="0" />
        <mxCell id="1" parent="0" />
      </root>
    </mxGraphModel>
  </diagram>
</mxfile>
